<svg width="11" height="10" viewBox="0 0 11 10" fill="none" xmlns="http://www.w3.org/2000/svg">
<path d="M4.56288 2.13908C4.98353 2.91591 4.84953 3.79848 4.26407 4.11198C3.67862 4.42548 2.86252 4.04966 2.44187 3.27282C2.02123 2.49599 2.15522 1.61342 2.74068 1.29992C3.32613 0.986415 4.14224 1.36224 4.56288 2.13908ZM2.49544 4.60039C2.96896 5.15961 3.00836 5.90051 2.5845 6.25297C2.16064 6.60542 1.43289 6.43817 0.96129 5.87861C0.48969 5.31905 0.44645 4.57882 0.870308 4.22637C1.29417 3.87392 2.02192 4.04116 2.49352 4.60072L2.49544 4.60039ZM2.58247 8.604C3.11125 5.70781 4.7806 4.70131 5.57516 4.56121C6.36972 4.4211 8.28263 4.79595 9.77008 7.33663C9.87224 7.51104 9.93831 7.70569 9.97359 7.90578L9.97901 7.93656C10.0665 8.43292 9.73535 8.90591 9.23898 8.99343C9.01774 9.03244 8.79367 9.04418 8.57062 9.02797L6.80298 8.90324C6.49573 8.88203 6.18791 8.93631 5.90645 9.06132L4.28807 9.7831C4.08402 9.87462 3.86944 9.94023 3.6482 9.97924C3.15184 10.0668 2.67885 9.73557 2.59132 9.23921L2.5859 9.20843C2.55062 9.00834 2.54612 8.80283 2.58247 8.604ZM8.96408 5.12808C8.44523 4.94185 8.22885 4.23215 8.48255 3.5447C8.73625 2.85725 9.36098 2.45152 9.87983 2.63775C10.3987 2.82398 10.6151 3.53368 10.3614 4.22113C10.1077 4.90858 9.48292 5.31431 8.96408 5.12808ZM6.49962 3.71779C5.84225 3.62343 5.41448 2.83992 5.54406 1.96607C5.67364 1.09221 6.31199 0.459928 6.96936 0.554287C7.62673 0.648647 8.05451 1.43216 7.92492 2.30601C7.79534 3.17987 7.15699 3.81215 6.49962 3.71779Z" fill="#ECE2D1"/>
</svg>
