<svg width="51" height="45" viewBox="0 0 51 45" fill="none" xmlns="http://www.w3.org/2000/svg">
<path fill-rule="evenodd" clip-rule="evenodd" d="M2 25.338C2 12.4488 12.4488 2 25.338 2C38.2272 2 48.676 12.4488 48.676 25.338C48.676 31.7371 46.1018 37.5334 41.93 41.7505C37.5194 39.1821 34.9578 36.5933 33.6139 34.1342C32.2196 31.5829 32.0892 29.0866 32.6766 26.7135C33.8791 21.855 38.0626 17.5648 40.7914 14.7892L40.866 14.7133C41.6814 13.884 42.4183 13.1346 42.8074 12.5856C42.9131 12.4364 43.0221 12.2629 43.1007 12.0764C43.1718 11.9078 43.272 11.6043 43.1979 11.2508C43.1079 10.8214 42.8135 10.5411 42.5061 10.4026C42.2465 10.2857 41.9807 10.2666 41.7899 10.2671C39.5237 10.2722 32.1188 10.6618 24.1395 14.1378C16.609 17.4183 8.55276 23.4581 3.86364 34.4926C2.66411 31.6826 2 28.5888 2 25.338ZM25.338 0C11.3442 0 0 11.3442 0 25.338C0 29.726 1.11623 33.8562 3.08102 37.4572L4.14121 39.4003L4.89851 37.3204C9.18936 25.5356 17.3213 19.2896 24.9383 15.9714C31.3549 13.1761 37.3947 12.4667 40.4137 12.3083C40.1261 12.612 39.7754 12.9699 39.3652 13.387L39.2989 13.4545C36.6442 16.1545 32.081 20.7955 30.7352 26.233C30.0427 29.0307 30.1955 32.0497 31.8589 35.0934C33.5081 38.1112 36.5943 41.066 41.6022 43.866L42.2448 44.2252L42.7787 43.7185C47.6416 39.1027 50.676 32.5739 50.676 25.338C50.676 11.3442 39.3318 0 25.338 0ZM41.8262 12.2683C41.8262 12.2684 41.8234 12.2682 41.8183 12.2676C41.8237 12.2679 41.8263 12.2682 41.8262 12.2683ZM18.064 29.9369C19.2039 29.3265 19.4648 27.6081 18.6458 26.0956C17.8268 24.583 16.2378 23.8513 15.0979 24.4617C13.958 25.0721 13.6971 26.7905 14.5161 28.303C15.3351 29.8155 16.9241 30.5473 18.064 29.9369ZM14.7938 34.1055C15.6191 33.4192 15.5424 31.9767 14.6204 30.8878L14.6167 30.8885C13.6984 29.799 12.2815 29.4734 11.4562 30.1596C10.6309 30.8458 10.7151 32.2871 11.6334 33.3766C12.5516 34.4661 13.9685 34.7917 14.7938 34.1055ZM20.6167 30.8115C19.0697 31.0843 15.8194 33.044 14.7899 38.683C14.7191 39.0702 14.7278 39.4703 14.7965 39.8599L14.8071 39.9198C14.9775 40.8862 15.8984 41.5311 16.8649 41.3607C17.2956 41.2847 17.7134 41.157 18.1107 40.9788L21.2618 39.5734C21.8098 39.33 22.4091 39.2244 23.0074 39.2656L26.449 39.5085C26.8833 39.5401 27.3196 39.5172 27.7504 39.4413C28.7168 39.2708 29.3616 38.3499 29.1912 37.3835L29.1807 37.3236C29.112 36.934 28.9833 36.555 28.7844 36.2154C25.8883 31.2686 22.1638 30.5388 20.6167 30.8115ZM26.2775 28.8324C25.7836 30.1709 26.2049 31.5527 27.2151 31.9153C28.2253 32.2779 29.4417 31.4879 29.9357 30.1494C30.4296 28.8109 30.0083 27.4291 28.9981 27.0665C27.9879 26.7039 26.7715 27.4939 26.2775 28.8324ZM20.5562 25.7587C20.3039 27.4601 21.1368 28.9857 22.4167 29.1694C23.6966 29.3531 24.9395 28.122 25.1918 26.4206C25.4441 24.7192 24.6112 23.1936 23.3313 23.0099C22.0514 22.8262 20.8085 24.0573 20.5562 25.7587Z" fill="#ECE2D1"/>
</svg>
