<svg width="59" height="53" viewBox="0 0 59 53" fill="none" xmlns="http://www.w3.org/2000/svg">
<g filter="url(#filter0_d_4_37)">
<path fill-rule="evenodd" clip-rule="evenodd" d="M6 25.338C6 12.4488 16.4488 2 29.338 2C42.2272 2 52.676 12.4488 52.676 25.338C52.676 31.7371 50.1018 37.5334 45.93 41.7505C41.5194 39.1821 38.9578 36.5933 37.6139 34.1342C36.2196 31.5829 36.0892 29.0866 36.6766 26.7135C37.8791 21.855 42.0626 17.5648 44.7914 14.7892L44.866 14.7133C45.6814 13.884 46.4183 13.1346 46.8074 12.5856C46.9131 12.4364 47.0221 12.2629 47.1007 12.0764C47.1718 11.9078 47.272 11.6043 47.1979 11.2508C47.1079 10.8214 46.8135 10.5411 46.5061 10.4026C46.2465 10.2857 45.9807 10.2666 45.7899 10.2671C43.5237 10.2722 36.1188 10.6618 28.1395 14.1378C20.609 17.4183 12.5528 23.4581 7.86364 34.4926C6.66411 31.6826 6 28.5888 6 25.338ZM29.338 0C15.3442 0 4 11.3442 4 25.338C4 29.726 5.11623 33.8562 7.08102 37.4572L8.14121 39.4003L8.89851 37.3204C13.1894 25.5356 21.3213 19.2896 28.9383 15.9714C35.3549 13.1761 41.3947 12.4667 44.4137 12.3083C44.1261 12.612 43.7754 12.9699 43.3652 13.387L43.2989 13.4545C40.6442 16.1545 36.081 20.7955 34.7352 26.233C34.0427 29.0307 34.1955 32.0497 35.8589 35.0934C37.5081 38.1112 40.5943 41.066 45.6022 43.866L46.2448 44.2252L46.7787 43.7185C51.6416 39.1027 54.676 32.5739 54.676 25.338C54.676 11.3442 43.3318 0 29.338 0ZM45.8262 12.2683C45.8262 12.2684 45.8234 12.2682 45.8183 12.2676C45.8237 12.2679 45.8263 12.2682 45.8262 12.2683ZM22.064 29.9369C23.2039 29.3265 23.4648 27.6081 22.6458 26.0956C21.8268 24.583 20.2378 23.8513 19.0979 24.4617C17.958 25.0721 17.6971 26.7905 18.5161 28.303C19.3351 29.8155 20.9241 30.5473 22.064 29.9369ZM18.7938 34.1055C19.6191 33.4192 19.5424 31.9767 18.6204 30.8878L18.6167 30.8885C17.6984 29.799 16.2815 29.4734 15.4562 30.1596C14.6309 30.8458 14.7151 32.2871 15.6333 33.3766C16.5516 34.4661 17.9685 34.7917 18.7938 34.1055ZM24.6167 30.8115C23.0697 31.0843 19.8194 33.044 18.7899 38.683C18.7191 39.0702 18.7278 39.4703 18.7965 39.8599L18.8071 39.9198C18.9775 40.8862 19.8984 41.5311 20.8649 41.3607C21.2956 41.2847 21.7134 41.157 22.1107 40.9788L25.2618 39.5734C25.8098 39.33 26.4091 39.2244 27.0073 39.2656L30.449 39.5085C30.8833 39.5401 31.3196 39.5172 31.7504 39.4413C32.7168 39.2709 33.3616 38.3499 33.1912 37.3835L33.1807 37.3236C33.112 36.934 32.9833 36.555 32.7844 36.2154C29.8883 31.2686 26.1638 30.5388 24.6167 30.8115ZM30.2775 28.8324C29.7836 30.1709 30.2049 31.5527 31.2151 31.9153C32.2253 32.2779 33.4417 31.4879 33.9357 30.1494C34.4296 28.8109 34.0083 27.4291 32.9981 27.0665C31.9879 26.7039 30.7715 27.4939 30.2775 28.8324ZM24.5562 25.7587C24.3039 27.4601 25.1368 28.9857 26.4167 29.1694C27.6966 29.3531 28.9395 28.122 29.1918 26.4206C29.4441 24.7192 28.6112 23.1936 27.3313 23.0099C26.0514 22.8262 24.8085 24.0573 24.5562 25.7587Z" fill="#ECE2D1"/>
</g>
<defs>
<filter id="filter0_d_4_37" x="0" y="0" width="58.676" height="52.2252" filterUnits="userSpaceOnUse" color-interpolation-filters="sRGB">
<feFlood flood-opacity="0" result="BackgroundImageFix"/>
<feColorMatrix in="SourceAlpha" type="matrix" values="0 0 0 0 0 0 0 0 0 0 0 0 0 0 0 0 0 0 127 0" result="hardAlpha"/>
<feOffset dy="4"/>
<feGaussianBlur stdDeviation="2"/>
<feComposite in2="hardAlpha" operator="out"/>
<feColorMatrix type="matrix" values="0 0 0 0 0 0 0 0 0 0 0 0 0 0 0 0 0 0 0.25 0"/>
<feBlend mode="normal" in2="BackgroundImageFix" result="effect1_dropShadow_4_37"/>
<feBlend mode="normal" in="SourceGraphic" in2="effect1_dropShadow_4_37" result="shape"/>
</filter>
</defs>
</svg>
