<svg width="34" height="29" viewBox="0 0 34 29" fill="none" xmlns="http://www.w3.org/2000/svg">
<g filter="url(#filter0_d_20_150)">
<path d="M5.8125 16.3125C4.80996 16.3125 4 17.1225 4 18.125C4 19.1275 4.80996 19.9375 5.8125 19.9375H27.5625C28.565 19.9375 29.375 19.1275 29.375 18.125C29.375 17.1225 28.565 16.3125 27.5625 16.3125H5.8125ZM5.8125 9.0625C4.80996 9.0625 4 9.87246 4 10.875C4 11.8775 4.80996 12.6875 5.8125 12.6875H27.5625C28.565 12.6875 29.375 11.8775 29.375 10.875C29.375 9.87246 28.565 9.0625 27.5625 9.0625H5.8125Z" fill="#ECE2D1"/>
</g>
<defs>
<filter id="filter0_d_20_150" x="0" y="0" width="33.375" height="37" filterUnits="userSpaceOnUse" color-interpolation-filters="sRGB">
<feFlood flood-opacity="0" result="BackgroundImageFix"/>
<feColorMatrix in="SourceAlpha" type="matrix" values="0 0 0 0 0 0 0 0 0 0 0 0 0 0 0 0 0 0 127 0" result="hardAlpha"/>
<feOffset dy="4"/>
<feGaussianBlur stdDeviation="2"/>
<feComposite in2="hardAlpha" operator="out"/>
<feColorMatrix type="matrix" values="0 0 0 0 0 0 0 0 0 0 0 0 0 0 0 0 0 0 0.25 0"/>
<feBlend mode="normal" in2="BackgroundImageFix" result="effect1_dropShadow_20_150"/>
<feBlend mode="normal" in="SourceGraphic" in2="effect1_dropShadow_20_150" result="shape"/>
</filter>
</defs>
</svg>
